<svg xmlns="http://www.w3.org/2000/svg" width="28" height="20" viewBox="0 0 28 20" fill="none">
    <path d="M23.4216 2.39021C21.6888 1.66001 19.8306 1.12204 17.8877 0.813915C17.8523 0.807968 17.817 0.822829 17.7988 0.852552C17.5598 1.2429 17.2951 1.75215 17.1097 2.15241C15.02 1.8651 12.941 1.8651 10.8942 2.15241C10.7088 1.74325 10.4345 1.2429 10.1944 0.852552C10.1762 0.823821 10.1408 0.80896 10.1055 0.813915C8.16366 1.12105 6.30545 1.65903 4.57153 2.39021C4.55652 2.39615 4.54366 2.40607 4.53512 2.41894C1.01048 7.25483 0.0449387 11.9719 0.518603 16.6304C0.520746 16.6532 0.534677 16.675 0.553967 16.6888C2.87942 18.2572 5.13202 19.2093 7.34279 19.8404C7.37817 19.8503 7.41566 19.8385 7.43817 19.8117C7.96113 19.1558 8.4273 18.4643 8.82699 17.737C8.85058 17.6945 8.82807 17.6439 8.77986 17.6271C8.04043 17.3695 7.33635 17.0554 6.65908 16.6988C6.60551 16.67 6.60122 16.5997 6.6505 16.566C6.79302 16.4679 6.93559 16.3658 7.07168 16.2628C7.0963 16.244 7.13061 16.24 7.15956 16.2519C11.609 18.1175 16.426 18.1175 20.8229 16.2519C20.8519 16.239 20.8862 16.243 20.9119 16.2618C21.048 16.3649 21.1905 16.4679 21.3341 16.566C21.3834 16.5997 21.3802 16.67 21.3266 16.6988C20.6493 17.0623 19.9452 17.3695 19.2047 17.6261C19.1565 17.6429 19.1351 17.6945 19.1587 17.737C19.567 18.4633 20.0331 19.1548 20.5464 19.8107C20.5679 19.8385 20.6064 19.8503 20.6418 19.8404C22.8633 19.2093 25.1159 18.2572 27.4413 16.6888C27.4617 16.675 27.4746 16.6542 27.4767 16.6314C28.0436 11.2456 26.5272 6.56725 23.457 2.41993C23.4495 2.40607 23.4367 2.39615 23.4216 2.39021ZM9.49144 13.7938C8.15186 13.7938 7.04809 12.6644 7.04809 11.2773C7.04809 9.89024 8.13046 8.7608 9.49144 8.7608C10.8631 8.7608 11.9562 9.90016 11.9348 11.2773C11.9348 12.6644 10.8524 13.7938 9.49144 13.7938ZM18.5253 13.7938C17.1858 13.7938 16.082 12.6644 16.082 11.2773C16.082 9.89024 17.1643 8.7608 18.5253 8.7608C19.897 8.7608 20.9901 9.90016 20.9687 11.2773C20.9687 12.6644 19.897 13.7938 18.5253 13.7938Z"
          fill="#E2E8F0"/>
</svg>
