<svg xmlns="http://www.w3.org/2000/svg" width="40" height="27" viewBox="0 0 47 34" fill="none">
    <g>
        <path
                d="M1.82522 18.2051C-2.16958 9.80545 5.29244 2.90997 9.69375 1.30341C22.7859 -3.47546 40.9125 4.89586 46.313 26.2668C44.496 28.983 42.0734 30.8281 40.9125 31.443C39.5604 26.8224 37.2282 21.2181 33.3923 18.2051C35.0074 22.9357 35.9664 28.9318 35.3102 33.5785C31.8376 34.091 26.0517 33.937 24.7067 33.5785C24.7067 23.1919 19.0585 14.4283 13.9105 10.0208C13.9105 10.0208 25.7712 11.4046 29.0949 19.7499C29.0949 17.9645 28.3957 10.0208 18.7052 5.61339C28.5976 6.99712 33.039 11.3021 36.7617 16.3184C35.6617 6.35056 24.0452 2.82779 18.3744 2.31238C15.3243 2.21948 12.2641 2.89285 9.469 4.48594C-5.39266 12.9566 15.8586 29.0986 14.5112 13.1174C18.375 17.1715 22.1052 23.6378 22.7811 31.1655C19.6596 28.4305 14.2925 26.4355 10.9124 25.179C10.5092 25.0291 10.1342 24.8897 9.79466 24.7609C4.3976 22.7121 2.65341 19.9464 1.82522 18.2051Z"
                fill="white"
        />
    </g>
    <defs>
        <clipPath id="clip0_24_4053">
            <rect width="45.6259" height="33.927" fill="white" transform="translate(0.687012)"/>
        </clipPath>
    </defs>
</svg>

