<svg xmlns="http://www.w3.org/2000/svg" width="26" height="27" viewBox="0 0 26 27" fill="none">
    <path d="M13 3.09859C16.3877 3.09859 16.789 3.11153 18.1269 3.17257C19.3639 3.22898 20.0357 3.43567 20.4828 3.60942C21.075 3.83958 21.4976 4.11451 21.9416 4.55846C22.3856 5.00246 22.6605 5.42511 22.8907 6.01732C23.0644 6.4644 23.2711 7.13619 23.3275 8.3732C23.3886 9.71105 23.4015 10.1123 23.4015 13.5C23.4015 16.8877 23.3886 17.289 23.3275 18.6269C23.2711 19.8639 23.0644 20.5357 22.8907 20.9827C22.6605 21.575 22.3856 21.9976 21.9416 22.4416C21.4976 22.8856 21.075 23.1605 20.4828 23.3906C20.0357 23.5644 19.3639 23.7711 18.1269 23.8275C16.7892 23.8885 16.388 23.9015 13 23.9015C9.61206 23.9015 9.21087 23.8885 7.87317 23.8275C6.63615 23.7711 5.96436 23.5644 5.51728 23.3906C4.92506 23.1605 4.50241 22.8856 4.05846 22.4416C3.61451 21.9976 3.33953 21.575 3.10937 20.9827C2.93562 20.5357 2.72893 19.8639 2.67252 18.6269C2.61148 17.289 2.59854 16.8877 2.59854 13.5C2.59854 10.1123 2.61148 9.71105 2.67252 8.3732C2.72893 7.13619 2.93562 6.4644 3.10937 6.01732C3.33953 5.42511 3.61446 5.00246 4.05846 4.55851C4.50241 4.11451 4.92506 3.83958 5.51728 3.60942C5.96436 3.43567 6.63615 3.22898 7.87317 3.17257C9.21102 3.11153 9.61231 3.09859 13 3.09859ZM13 0.812561C9.55429 0.812561 9.12223 0.827166 7.76897 0.888911C6.41853 0.950505 5.49623 1.165 4.68921 1.47861C3.85489 1.80285 3.14734 2.23668 2.44196 2.94201C1.73662 3.64739 1.30279 4.35494 0.978603 5.18926C0.664941 5.99627 0.450445 6.91857 0.388851 8.269C0.327105 9.62226 0.3125 10.0543 0.3125 13.5C0.3125 16.9457 0.327105 17.3778 0.388851 18.7311C0.450445 20.0815 0.664941 21.0038 0.978603 21.8108C1.30279 22.6451 1.73662 23.3527 2.44196 24.0581C3.14734 24.7634 3.85489 25.1972 4.68921 25.5214C5.49623 25.8351 6.41853 26.0496 7.76897 26.1112C9.12223 26.1729 9.55429 26.1875 13 26.1875C16.4457 26.1875 16.8778 26.1729 18.2311 26.1112C19.5815 26.0496 20.5038 25.8351 21.3108 25.5214C22.1451 25.1972 22.8527 24.7634 23.5581 24.0581C24.2634 23.3527 24.6972 22.6451 25.0215 21.8108C25.3351 21.0038 25.5496 20.0815 25.6112 18.7311C25.6729 17.3778 25.6875 16.9457 25.6875 13.5C25.6875 10.0543 25.6729 9.62226 25.6112 8.269C25.5496 6.91857 25.3351 5.99627 25.0215 5.18926C24.6972 4.35494 24.2634 3.64739 23.5581 2.94201C22.8527 2.23668 22.1451 1.80285 21.3108 1.47861C20.5038 1.165 19.5815 0.950505 18.2311 0.888911C16.8778 0.827166 16.4457 0.812561 13 0.812561Z"
          fill="#E2E8F0"/>
    <path d="M13.0104 6.99078C9.41205 6.99078 6.49512 9.90771 6.49512 13.5059C6.49512 17.1042 9.41205 20.0212 13.0104 20.0212C16.6086 20.0212 19.5255 17.1042 19.5255 13.5059C19.5255 9.90771 16.6086 6.99078 13.0104 6.99078ZM13.0104 17.7351C10.6746 17.7351 8.78115 15.8417 8.78115 13.5059C8.78115 11.1703 10.6746 9.27681 13.0104 9.27681C15.346 9.27681 17.2395 11.1703 17.2395 13.5059C17.2395 15.8417 15.346 17.7351 13.0104 17.7351Z"
          fill="#E2E8F0"/>
    <path d="M21.3023 6.72919C21.3023 7.57001 20.6207 8.25167 19.7798 8.25167C18.939 8.25167 18.2573 7.57001 18.2573 6.72919C18.2573 5.88833 18.939 5.20667 19.7798 5.20667C20.6207 5.20667 21.3023 5.88833 21.3023 6.72919Z"
          fill="#E2E8F0"/>
</svg>
