<svg width="28" height="28" viewBox="0 0 35 34" fill="none">
    <g clipPath="url(#clip0_3461_25432)">
        <path d="M34.6641 4.24984C34.1371 10.0653 30.6861 15.7121 24.9273 17.6203C25.3481 16.8383 25.7716 15.9983 26.1768 15.0944C30.3064 12.9397 31.8959 9.07359 32.5008 6.23884H28.6928C28.7764 5.60134 28.8387 4.93267 28.8897 4.24842L34.6641 4.24984ZM0.664062 4.24984C1.19106 10.0653 4.64206 15.7121 10.4008 17.6203C9.98006 16.8383 9.55648 15.9983 9.15131 15.0944C5.02173 12.9397 3.43223 9.07359 2.82731 6.23884H6.63531C6.55315 5.60275 6.49081 4.93267 6.43981 4.24984H0.664062ZM27.5807 1.4165C27.5807 15.3041 20.3642 19.9083 19.6587 25.4998H15.685C14.9795 19.9083 7.7474 15.3041 7.7474 1.4165H27.5807ZM17.232 19.9083C14.5601 15.2899 13.4991 9.37959 13.4835 4.24984H11.0766C11.367 10.8345 13.8957 16.0549 17.232 19.9083ZM19.7012 26.9165H15.6411C15.3549 28.5981 14.7486 30.6268 11.9988 30.6268V32.5832H23.3321V30.6268C20.5002 30.6268 19.9732 28.5981 19.7012 26.9165Z"
              fill="#975A16"/>
    </g>
    <defs>
        <clipPath id="clip0_3461_25432">
            <rect width="34" height="34" fill="white" transform="translate(0.664062)"/>
        </clipPath>
    </defs>
</svg>
