<svg width="28" height="28" viewBox="0 0 35 34" fill="none">
    <g clipPath="url(#clip0_3461_25412)">
        <path d="M34.332 4.24984C33.805 10.0653 30.354 15.7121 24.5953 17.6203C25.016 16.8383 25.4396 15.9983 25.8448 15.0944C29.9744 12.9397 31.5639 9.07359 32.1688 6.23884H28.3608C28.4444 5.60134 28.5067 4.93267 28.5577 4.24842L34.332 4.24984ZM0.332031 4.24984C0.859031 10.0653 4.31003 15.7121 10.0688 17.6203C9.64803 16.8383 9.22445 15.9983 8.81928 15.0944C4.6897 12.9397 3.1002 9.07359 2.49528 6.23884H6.30328C6.22111 5.60275 6.15878 4.93267 6.10778 4.24984H0.332031ZM27.2487 1.4165C27.2487 15.3041 20.0322 19.9083 19.3267 25.4998H15.3529C14.6474 19.9083 7.41536 15.3041 7.41536 1.4165H27.2487ZM16.8999 19.9083C14.2281 15.2899 13.167 9.37959 13.1514 4.24984H10.7445C11.0349 10.8345 13.5637 16.0549 16.8999 19.9083ZM19.3692 26.9165H15.309C15.0229 28.5981 14.4165 30.6268 11.6668 30.6268V32.5832H23.0001V30.6268C20.1682 30.6268 19.6412 28.5981 19.3692 26.9165Z"
              fill="#ECC94B"/>
    </g>
    <defs>
        <clipPath id="clip0_3461_25412">
            <rect width="34" height="34" fill="white" transform="translate(0.332031)"/>
        </clipPath>
    </defs>
</svg>
