<svg width="28" height="28" viewBox="0 0 34 34" fill="none">
    <path d="M34 4.24984C33.473 10.0653 30.022 15.7121 24.2633 17.6203C24.684 16.8383 25.1076 15.9983 25.5128 15.0944C29.6423 12.9397 31.2318 9.07359 31.8367 6.23884H28.0287C28.1123 5.60134 28.1747 4.93267 28.2257 4.24842L34 4.24984ZM0 4.24984C0.527 10.0653 3.978 15.7121 9.73675 17.6203C9.316 16.8383 8.89242 15.9983 8.48725 15.0944C4.35767 12.9397 2.76817 9.07359 2.16325 6.23884H5.97125C5.88908 5.60275 5.82675 4.93267 5.77575 4.24984H0ZM26.9167 1.4165C26.9167 15.3041 19.7002 19.9083 18.9947 25.4998H15.0209C14.3154 19.9083 7.08333 15.3041 7.08333 1.4165H26.9167ZM16.5679 19.9083C13.8961 15.2899 12.835 9.37959 12.8194 4.24984H10.4125C10.7029 10.8345 13.2317 16.0549 16.5679 19.9083ZM19.0372 26.9165H14.977C14.6908 28.5981 14.0845 30.6268 11.3348 30.6268V32.5832H22.6681V30.6268C19.8362 30.6268 19.3092 28.5981 19.0372 26.9165Z"
          fill="#A0AEC0"/>
</svg>
