<svg xmlns="http://www.w3.org/2000/svg" width="26" height="21" viewBox="0 0 26 21" fill="none">
    <path fillRule="evenodd" clipRule="evenodd"
          d="M2.62379 9.05185C9.0826 6.2382 13.3895 4.38328 15.5444 3.48707C21.6973 0.928207 22.9758 0.483706 23.8091 0.469029C23.9924 0.4658 24.4022 0.511217 24.6676 0.726585C24.8918 0.908437 24.9534 1.15409 24.983 1.32651C25.0125 1.49893 25.0492 1.8917 25.02 2.19859C24.6866 5.70148 23.2439 14.202 22.5099 18.1253C22.1993 19.7854 21.5878 20.342 20.9957 20.3965C19.7091 20.5149 18.7321 19.5463 17.486 18.7296C15.536 17.4515 14.4344 16.6559 12.5416 15.4087C10.3541 13.9674 11.7722 13.1752 13.0188 11.8806C13.345 11.5418 19.0139 6.38617 19.1236 5.91848C19.1374 5.85999 19.1501 5.64195 19.0205 5.52682C18.891 5.41169 18.6998 5.45106 18.5618 5.48237C18.3662 5.52675 15.2511 7.58547 9.21646 11.6585C8.33224 12.2656 7.53135 12.5614 6.81377 12.5459C6.02271 12.5288 4.50101 12.0987 3.36978 11.731C1.98228 11.2801 0.87953 11.0416 0.975556 10.2758C1.02557 9.87684 1.57498 9.46887 2.62379 9.05185Z"
          fill="#E2E8F0"/>
</svg>
