<svg xmlns="http://www.w3.org/2000/svg" width="26" height="22" viewBox="0 0 26 22" fill="none">
    <path d="M0.765625 18.3729C3.3995 18.5215 5.70271 17.9041 7.94891 16.2693C5.67991 15.8806 4.10643 14.8402 3.25128 12.6909C3.91259 12.5994 4.4941 12.7709 5.17822 12.4965C2.94342 11.5133 1.49536 10.0385 1.43835 7.48905C2.14527 7.54622 2.68118 8.01495 3.52493 7.94636C1.47256 5.93422 0.845439 3.73917 2.13387 1.07539C4.27745 3.54482 6.78591 5.22541 9.85306 6.01425C10.0241 6.05998 10.1837 6.10571 10.3547 6.14001C11.1415 6.32293 12.0765 6.71164 12.5553 6.65448C13.3763 6.55158 12.5553 5.60268 12.7606 4.36796C13.4105 0.526623 17.6293 -1.22256 20.7534 1.02966C21.6656 1.69274 22.3839 1.68131 23.2847 1.28117C23.7521 1.07539 24.231 0.8696 24.7897 0.629516C24.6643 1.72704 23.8206 2.33297 23.1478 3.14468C23.9118 3.31617 24.5275 3.09895 25.2344 2.8703C24.995 3.65915 24.4021 4.10501 23.8662 4.53945C23.3075 4.98532 23.0908 5.45406 23.068 6.18574C22.726 17.2639 10.1723 25.8269 1.58658 19.0131C0.754231 18.35 1.56377 19.0131 0.765625 18.3729Z"
          fill="#E2E8F0"/>
</svg>
